<svg xmlns="http://www.w3.org/2000/svg" width="458" height="458" viewBox="0 0 458 458" version="1.1">
	<path d="M 122.500 2.117 C 67.215 5.377, 23.778 13.301, 9.825 22.672 C 7.474 24.250, 4.527 27.062, 3.276 28.919 L 1 32.296 1.015 214.398 C 1.031 411.132, 0.781 401.486, 6.192 414.332 C 13.721 432.208, 29.219 446.876, 47.729 453.648 L 55.500 456.491 175.438 456.769 C 291.026 457.037, 295.653 456.977, 302.990 455.122 C 325.416 449.451, 342.890 434.204, 351.266 413 C 354.059 405.928, 356 396.834, 356 390.816 C 356 388.426, 356.467 387.003, 357.250 387.007 C 357.938 387.012, 367.500 386.820, 378.500 386.582 C 395.053 386.224, 399.790 385.781, 405.984 384.007 C 430.246 377.058, 448.957 358.130, 455.028 334.391 C 456.914 327.017, 457 323.009, 457 242.654 C 457 148.518, 457.285 152.646, 449.710 137 C 446.339 130.038, 443.957 126.868, 436.547 119.479 C 427.111 110.069, 421.070 106.223, 409 101.937 C 403.173 99.868, 400.120 99.571, 379.500 99.065 L 356.500 98.500 356 64.822 C 355.522 32.633, 355.407 31.018, 353.409 28.322 C 343.602 15.091, 300.714 5.877, 231 2.024 C 209.672 0.845, 143.104 0.902, 122.500 2.117 M 130.500 18.692 C 105.236 19.778, 63.340 24.445, 46.002 28.106 C 35.524 30.319, 21.301 34.704, 20.524 35.961 C 19.783 37.161, 28.756 40.732, 38.184 42.990 C 104.113 58.779, 249.829 58.965, 316.500 43.346 C 328.530 40.528, 337.278 37.259, 336.436 35.896 C 335.393 34.209, 316.324 29.009, 302 26.506 C 284.410 23.432, 255.940 20.438, 231 19.039 C 214.590 18.118, 149.119 17.893, 130.500 18.692 M 18.012 225.133 C 18.025 410.366, 17.700 399.600, 23.644 411.690 C 27.414 419.359, 38.757 430.807, 46.131 434.386 C 58.146 440.216, 52.464 439.976, 178.500 439.976 C 304.143 439.976, 298.433 440.216, 310.500 434.436 C 318.263 430.718, 329.515 419.531, 333.242 411.826 C 339.344 399.213, 339 410.391, 339 224.790 C 339 128.541, 338.621 55, 338.126 55 C 337.645 55, 335.415 55.648, 333.171 56.440 C 326.544 58.778, 307.494 62.799, 293 64.919 C 239.052 72.810, 156.306 74.277, 94 68.446 C 63.716 65.612, 40.670 61.528, 19.750 55.289 C 18.088 54.793, 18.001 63.344, 18.012 225.133 M 356 122.500 L 356 129 372.864 129 C 382.138 129, 392.005 129.432, 394.789 129.960 C 407.123 132.299, 416.868 139.907, 422.734 151.777 L 426.500 159.396 426.500 242.448 L 426.500 325.500 424.091 331.500 C 420.750 339.823, 410.779 349.780, 402.500 353.060 C 397.018 355.232, 394.748 355.468, 376.206 355.793 L 355.912 356.148 356.206 362.824 L 356.500 369.500 375.500 369.451 C 387.658 369.420, 396.481 368.926, 400 368.079 C 413.437 364.846, 427.476 354.090, 433.839 342.151 C 440.151 330.309, 440 332.747, 440 242.500 C 440 152.981, 440.094 154.588, 434.234 143.575 C 430.126 135.853, 418.734 124.902, 410.972 121.213 C 401.314 116.622, 397.439 116.051, 375.750 116.024 L 356 116 356 122.500 M 356.667 146.667 C 356.300 147.033, 356 190.458, 356 243.167 L 356 339 373.250 338.994 C 382.738 338.991, 392.235 338.507, 394.355 337.919 C 396.475 337.330, 400.193 335.020, 402.617 332.785 C 410.341 325.665, 410.085 328.970, 409.774 240.412 L 409.500 162.500 407.279 158.347 C 404.396 152.956, 398.861 148.454, 393.436 147.088 C 388.788 145.918, 357.771 145.562, 356.667 146.667" stroke="none" fill="black" fill-rule="evenodd"/>
</svg>