<svg xmlns="http://www.w3.org/2000/svg" width="626" height="370" viewBox="0 0 626 370" version="1.1">
	<path d="M 86.821 1.389 C 78.104 3.747, 71.103 11.088, 69.074 20 C 68.400 22.958, 68.041 74.110, 68.024 169.250 L 68 314 35.571 314 C -3.729 314, -1.356 313.048, 1.047 327.859 C 3.994 346.022, 17.003 361.177, 34.850 367.241 L 41.500 369.500 308.500 369.747 C 483.131 369.909, 577.827 369.647, 582.227 368.992 C 591.448 367.617, 598.836 364.676, 605.536 359.713 C 615.943 352.002, 623.467 339.284, 624.727 327.276 C 625.028 324.402, 625.663 322.292, 626.137 322.585 C 626.612 322.878, 627 321.441, 627 319.392 C 627 317.343, 626.721 315.945, 626.381 316.286 C 626.040 316.626, 625.108 316.251, 624.310 315.452 C 623.099 314.242, 617.448 314, 590.429 314 L 558 314 557.914 261.250 C 557.867 232.238, 557.755 165.975, 557.664 114 L 557.500 19.500 555.145 14.762 C 552.514 9.467, 547.448 4.570, 542.073 2.125 C 538.813 0.642, 518.919 0.484, 315 0.312 C 137.392 0.162, 90.539 0.384, 86.821 1.389 M 157 10 C 89.608 10.499, 89.494 10.504, 85.962 12.701 C 84.016 13.911, 81.462 16.613, 80.286 18.706 C 78.157 22.493, 78.147 22.866, 77.992 98.505 C 77.907 140.302, 77.874 205.887, 77.919 244.250 L 78 314 313 314 L 548 314 548 168.338 L 548 22.676 545.598 18.577 C 544.258 16.290, 541.438 13.491, 539.219 12.244 L 535.243 10.009 379.871 9.754 C 294.417 9.614, 194.125 9.725, 157 10 M 106.607 34.582 C 106.273 35.452, 106 92.962, 106 162.382 C 106 259.218, 106.279 288.879, 107.200 289.800 C 108.126 290.726, 155.237 291, 313.165 291 C 515.860 291, 517.940 290.980, 518.984 289.030 C 520.477 286.240, 520.324 36.095, 518.828 34.293 C 517.957 33.243, 479.100 33, 312.485 33 C 126.227 33, 107.158 33.147, 106.607 34.582 M 116 162 L 116 282 313 282 L 510 282 510 162 L 510 42 313 42 L 116 42 116 162 M 0.252 320.500 C 0.263 322.700, 0.468 323.482, 0.707 322.238 C 0.946 320.994, 0.937 319.194, 0.687 318.238 C 0.437 317.282, 0.241 318.300, 0.252 320.500 M 10.633 326.750 C 14.351 341.976, 24.383 353.076, 38.823 357.940 L 44.980 360.014 314.740 359.757 L 584.500 359.500 591.223 356.315 C 600.499 351.921, 607.261 345.326, 611.445 336.591 C 613.313 332.691, 615.111 328.262, 615.440 326.750 L 616.038 324 313 324 L 9.962 324 10.633 326.750 M 237.571 338.571 C 235.580 340.563, 235.561 343.418, 237.524 345.382 C 238.862 346.719, 248.125 346.914, 312.932 346.974 C 379.241 347.035, 386.978 346.879, 388.407 345.450 C 390.434 343.423, 390.443 340.586, 388.429 338.571 C 387.028 337.171, 378.810 337, 313 337 C 247.190 337, 238.972 337.171, 237.571 338.571" stroke="none" fill="black" fill-rule="evenodd"/>
</svg>